<svg width="374" height="140" viewBox="0 0 374 140" fill="none" xmlns="http://www.w3.org/2000/svg">
<path d="M373.5 10H166.5M140.869 8C127.705 8 93.8901 26.6307 107.136 64.5955C125.237 116.474 68.4664 170.712 1 116.474" stroke="#1DA1B0"/>
<path d="M142.569 2.67825C144.069 2.65593 145.291 3.861 145.291 5.35619H145.738V3.61553C145.738 2.14824 146.904 0.920847 148.371 0.892952C149.872 0.870636 151.093 2.07571 151.093 3.57089V5.35619H151.54V2.72288C151.54 1.25559 152.706 0.0282002 154.173 0.000305019C155.674 -0.0220112 156.896 1.18306 156.896 2.67825V5.35619H157.342V3.61553C157.342 2.14824 158.508 0.920847 159.975 0.892952C161.476 0.870636 162.698 2.07571 162.698 3.57089V11.1584L163.144 10.7623V8.07876C163.144 6.61147 164.31 5.38408 165.777 5.35619C167.278 5.33387 168.5 6.53894 168.5 8.03413V11.7386C168.5 13.2673 167.847 14.7234 166.704 15.7444L160.472 21.2844C159.903 21.792 159.574 22.5229 159.574 23.2872V23.661C159.574 24.403 158.977 25 158.235 25H144.845C144.103 25 143.506 24.403 143.506 23.661V23.4992C143.506 22.7851 143.361 22.0766 143.087 21.4183L140.354 14.9298C140.075 14.2715 139.935 13.563 139.935 12.8488V5.40082C139.935 3.93353 141.101 2.70056 142.569 2.67825Z" fill="#1DA1B0"/>
</svg>
