<svg width="13" height="13" viewBox="0 0 13 13" fill="none" xmlns="http://www.w3.org/2000/svg">
<path d="M5.52729 0.848678L6.17141 0.204553C6.44415 -0.0681843 6.88517 -0.0681843 7.15501 0.204553L12.7954 5.84209C13.0682 6.11483 13.0682 6.55585 12.7954 6.82569L7.15501 12.4661C6.88227 12.7389 6.44125 12.7389 6.17141 12.4661L5.52729 11.822C5.25165 11.5464 5.25745 11.0966 5.53889 10.8268L9.03515 7.49593L0.696351 7.49593C0.310456 7.49593 0 7.18547 0 6.79958L0 5.87111C0 5.48521 0.310456 5.17476 0.696351 5.17476L9.03515 5.17476L5.53889 1.84388C5.25455 1.57404 5.24874 1.12432 5.52729 0.848678Z" fill="#B56921"/>
</svg>
