<svg width="134" height="130" viewBox="0 0 134 130" fill="none" xmlns="http://www.w3.org/2000/svg">
<path d="M36.5 8H13C6.37258 8 1 13.3726 1 20V117C1 123.627 6.37258 129 13 129H121C127.627 129 133 123.627 133 117V20C133 13.3726 127.627 8 121 8H97.5M41.5 8H92.5" stroke="#008CBF" stroke-width="1.5"/>
<line x1="1" y1="38.25" x2="133" y2="38.25" stroke="#008CBF" stroke-width="1.5"/>
<rect x="36.75" y="0.75" width="4.5" height="19.5" rx="2.25" stroke="#008CBF" stroke-width="1.5"/>
<rect x="92.75" y="0.75" width="4.5" height="19.5" rx="2.25" stroke="#008CBF" stroke-width="1.5"/>
<rect x="35.75" y="56.75" width="17.5" height="14.5" stroke="#008CBF" stroke-width="1.5"/>
<rect x="57.75" y="56.75" width="17.5" height="14.5" stroke="#008CBF" stroke-width="1.5"/>
<rect x="79.75" y="56.75" width="17.5" height="14.5" stroke="#008CBF" stroke-width="1.5"/>
<rect x="101.75" y="56.75" width="17.5" height="14.5" stroke="#008CBF" stroke-width="1.5"/>
<rect x="35.75" y="76.75" width="17.5" height="14.5" stroke="#008CBF" stroke-width="1.5"/>
<rect x="35.75" y="96.75" width="17.5" height="14.5" stroke="#008CBF" stroke-width="1.5"/>
<rect x="57.75" y="76.75" width="17.5" height="14.5" stroke="#008CBF" stroke-width="1.5"/>
<rect x="57.75" y="96.75" width="17.5" height="14.5" stroke="#008CBF" stroke-width="1.5"/>
<rect x="79.75" y="76.75" width="17.5" height="14.5" stroke="#008CBF" stroke-width="1.5"/>
<rect x="79.75" y="96.75" width="17.5" height="14.5" stroke="#008CBF" stroke-width="1.5"/>
<rect x="101.75" y="76.75" width="17.5" height="14.5" stroke="#008CBF" stroke-width="1.5"/>
<rect x="13.75" y="96.75" width="17.5" height="14.5" stroke="#008CBF" stroke-width="1.5"/>
<rect x="13.75" y="76.75" width="17.5" height="14.5" stroke="#008CBF" stroke-width="1.5"/>
<path d="M86.1057 89.5005L81.8807 84.779C81.6269 84.4954 81.6269 84.0354 81.8807 83.7518L82.8 82.7245C83.0538 82.4408 83.4654 82.4408 83.7192 82.7245L86.5654 85.9051L92.6615 79.0926C92.9154 78.809 93.327 78.809 93.5808 79.0926L94.5 80.1199C94.7538 80.4035 94.7538 80.8635 94.5 81.1471L87.025 89.5005C86.7711 89.7841 86.3596 89.7841 86.1057 89.5005Z" fill="#008CBF"/>
</svg>
