<svg width="333" height="150" viewBox="0 0 333 150" fill="none" xmlns="http://www.w3.org/2000/svg">
<path d="M321.06 1C255.28 1 282.23 149.22 219.61 149.22C157 149.22 183.95 1 118.16 1C52.38 1 79.33 149.22 16.71 149.22C10.879 149.22 5.64999 147.993 1 145.781" stroke="#CF7F3C" stroke-miterlimit="10"/>
<path d="M2.00001 89.4952C4.82904 90.6634 11.6274 93 16.1887 93C58.5443 93 74.3004 57 117.485 57C170.155 57 175.836 93 218.781 93C264.012 93 274.876 57 320.077 57C323.597 57 327.286 57.2882 331 57.8473" stroke="#CF7F3C" stroke-width="3" stroke-miterlimit="10" stroke-linecap="round" stroke-linejoin="round" stroke-dasharray="0.1 10"/>
</svg>
