<svg width="248" height="248" viewBox="0 0 248 248" fill="none" xmlns="http://www.w3.org/2000/svg">
<path d="M160.31 35.9887L155.143 25.7234C154.998 25.4341 155.114 25.0817 155.403 24.9366C157.426 23.9183 159.892 24.733 160.911 26.7561L164.497 33.8813L166.03 33.1094C165.998 32.5371 166.07 31.9496 166.26 31.3724C167.073 28.9142 169.724 27.5798 172.182 28.3919C174.64 29.204 175.974 31.855 175.162 34.3132C174.35 36.7714 171.699 38.1058 169.241 37.2937C169.03 37.2241 168.829 37.1411 168.636 37.0459L166.605 38.0683L167.627 40.0994C167.839 40.1381 168.051 40.1916 168.261 40.2609C170.719 41.073 172.053 43.7241 171.241 46.1823C170.429 48.6405 167.778 49.9748 165.32 49.1627C162.862 48.3506 161.527 45.6996 162.339 43.2414C162.53 42.6642 162.822 42.1492 163.189 41.709L162.417 40.1756L155.292 43.7622C153.269 44.7806 150.803 43.9659 149.785 41.9427C149.639 41.6539 149.756 41.3016 150.045 41.156L160.31 35.9887ZM170.221 34.3264C171.039 34.5966 171.925 34.1508 172.195 33.3329C172.465 32.5151 172.019 31.6293 171.202 31.3591C170.384 31.089 169.498 31.5348 169.228 32.3526C168.958 33.1705 169.403 34.0562 170.221 34.3264ZM166.3 46.1955C167.118 46.4657 168.004 46.0198 168.274 45.202C168.544 44.3841 168.098 43.4984 167.28 43.2282C166.463 42.958 165.577 43.4039 165.307 44.2217C165.036 45.0396 165.482 45.9253 166.3 46.1955Z" fill="#1DA1B0"/>
<path d="M123.5 135.312C129.11 135.312 133.656 130.767 133.656 125.156C133.656 119.546 129.11 115 123.5 115C117.89 115 113.344 119.546 113.344 125.156C113.344 130.767 117.89 135.312 123.5 135.312ZM122.416 119.756V118.936C122.416 118.486 122.777 118.125 123.227 118.125H123.769C124.218 118.125 124.579 118.486 124.579 118.936V119.766C125.336 119.805 126.068 120.063 126.679 120.518C126.952 120.718 126.981 121.118 126.737 121.353L125.941 122.109C125.756 122.29 125.478 122.295 125.258 122.158C124.994 121.992 124.701 121.909 124.389 121.909H122.489C122.05 121.909 121.693 122.31 121.693 122.803C121.693 123.203 121.938 123.56 122.284 123.662L125.326 124.575C126.581 124.951 127.46 126.157 127.46 127.51C127.46 129.17 126.171 130.513 124.574 130.557V131.377C124.574 131.826 124.213 132.188 123.764 132.188H123.222C122.772 132.188 122.411 131.826 122.411 131.377V130.547C121.654 130.508 120.922 130.249 120.312 129.795C120.038 129.595 120.009 129.194 120.253 128.96L121.049 128.203C121.234 128.022 121.513 128.018 121.732 128.154C121.996 128.32 122.289 128.403 122.602 128.403H124.501C124.94 128.403 125.297 128.003 125.297 127.51C125.297 127.109 125.053 126.753 124.706 126.65L121.664 125.737C120.409 125.361 119.53 124.155 119.53 122.803C119.535 121.143 120.819 119.8 122.416 119.756ZM134.438 132.188H132.851C131.894 133.457 130.673 134.517 129.286 135.312H132.401C132.66 135.312 132.87 135.488 132.87 135.703V136.484C132.87 136.699 132.66 136.875 132.401 136.875H114.594C114.335 136.875 114.125 136.699 114.125 136.484V135.703C114.125 135.488 114.335 135.312 114.594 135.312H117.709C116.322 134.517 115.106 133.457 114.145 132.188H112.562C111.698 132.188 111 132.886 111 133.75V138.438C111 139.302 111.698 140 112.562 140H134.438C135.302 140 136 139.302 136 138.438V133.75C136 132.886 135.302 132.188 134.438 132.188Z" fill="#1DA1B0"/>
<path d="M247 124C247 191.931 191.931 247 124 247C56.069 247 1 191.931 1 124C1 56.069 56.069 1 124 1" stroke="#1DA1B0"/>
<path d="M124 28H123.5V28.5H124V28ZM220 124H219.5V124.5H220V124ZM243.854 124.354C244.049 124.158 244.049 123.842 243.854 123.646L240.672 120.464C240.476 120.269 240.16 120.269 239.964 120.464C239.769 120.66 239.769 120.976 239.964 121.172L242.793 124L239.964 126.828C239.769 127.024 239.769 127.34 239.964 127.536C240.16 127.731 240.476 127.731 240.672 127.536L243.854 124.354ZM124.354 5.14645C124.158 4.95118 123.842 4.95118 123.646 5.14645L120.464 8.32843C120.269 8.52369 120.269 8.84027 120.464 9.03553C120.66 9.2308 120.976 9.2308 121.172 9.03553L124 6.20711L126.828 9.03553C127.024 9.2308 127.34 9.2308 127.536 9.03553C127.731 8.84027 127.731 8.52369 127.536 8.32843L124.354 5.14645ZM123.5 5.5V7.91071H124.5V5.5H123.5ZM123.5 14.3393V19.1607H124.5V14.3393H123.5ZM123.5 25.5893V28H124.5V25.5893H123.5ZM124 28.5C124.98 28.5 125.956 28.5148 126.929 28.5441L126.959 27.5445C125.976 27.5149 124.99 27.5 124 27.5V28.5ZM134.699 29.0925C136.646 29.3096 138.576 29.5852 140.486 29.9176L140.657 28.9324C138.727 28.5966 136.777 28.318 134.81 28.0987L134.699 29.0925ZM148.097 31.566C149.991 32.0582 151.861 32.6071 153.707 33.2107L154.018 32.2602C152.153 31.6502 150.262 31.0956 148.349 30.5982L148.097 31.566ZM161.005 35.9338C162.805 36.6913 164.578 37.5024 166.32 38.3652L166.764 37.469C165.003 36.5972 163.212 35.7775 161.393 35.012L161.005 35.9338ZM173.155 42.1049C174.827 43.1106 176.465 44.166 178.069 45.2692L178.636 44.4454C177.016 43.3307 175.36 42.2642 173.67 41.248L173.155 42.1049ZM184.303 49.9432C185.814 51.175 187.286 52.452 188.718 53.7724L189.396 53.0372C187.949 51.7031 186.461 50.4127 184.935 49.1681L184.303 49.9432ZM194.228 59.282C195.548 60.714 196.825 62.1865 198.057 63.6973L198.832 63.0654C197.587 61.5388 196.297 60.051 194.963 58.6041L194.228 59.282ZM202.731 69.9313C203.834 71.5346 204.889 73.1732 205.895 74.8451L206.752 74.3297C205.736 72.6402 204.669 70.9845 203.555 69.3645L202.731 69.9313ZM209.635 81.6797C210.498 83.4221 211.309 85.1946 212.066 86.9952L212.988 86.6075C212.222 84.7879 211.403 82.9967 210.531 81.236L209.635 81.6797ZM214.789 94.2929C215.393 96.1388 215.942 98.0095 216.434 99.9029L217.402 99.6513C216.904 97.7379 216.35 95.8475 215.74 93.9821L214.789 94.2929ZM218.082 107.514C218.415 109.424 218.69 111.354 218.907 113.301L219.901 113.19C219.682 111.223 219.403 109.273 219.068 107.343L218.082 107.514ZM219.456 121.071C219.485 122.044 219.5 123.02 219.5 124H220.5C220.5 123.01 220.485 122.024 220.455 121.041L219.456 121.071ZM220 124.5H222.518V123.5H220V124.5ZM229.232 124.5H234.268V123.5H229.232V124.5ZM240.982 124.5H243.5V123.5H240.982V124.5ZM124 28H123V29H124V28ZM220 124H219V125H220V124ZM244.207 124.707C244.598 124.317 244.598 123.683 244.207 123.293L237.843 116.929C237.453 116.538 236.819 116.538 236.429 116.929C236.038 117.319 236.038 117.953 236.429 118.343L242.086 124L236.429 129.657C236.038 130.047 236.038 130.681 236.429 131.071C236.819 131.462 237.453 131.462 237.843 131.071L244.207 124.707ZM124.707 4.79289C124.317 4.40237 123.683 4.40237 123.293 4.79289L116.929 11.1569C116.538 11.5474 116.538 12.1805 116.929 12.5711C117.319 12.9616 117.953 12.9616 118.343 12.5711L124 6.91421L129.657 12.5711C130.047 12.9616 130.681 12.9616 131.071 12.5711C131.462 12.1805 131.462 11.5474 131.071 11.1569L124.707 4.79289ZM123 5.5V7.91071H125V5.5H123ZM123 14.3393V19.1607H125V14.3393H123ZM123 25.5893V28H125V25.5893H123ZM124 29C124.975 29 125.946 29.0147 126.914 29.0438L126.974 27.0447C125.987 27.015 124.995 27 124 27V29ZM134.643 29.5895C136.581 29.8054 138.5 30.0796 140.4 30.4102L140.743 28.4398C138.803 28.1022 136.843 27.8223 134.865 27.6018L134.643 29.5895ZM147.971 32.0499C149.855 32.5395 151.716 33.0855 153.552 33.6859L154.173 31.785C152.298 31.1718 150.398 30.6143 148.474 30.1142L147.971 32.0499ZM160.811 36.3947C162.602 37.1482 164.365 37.9551 166.098 38.8133L166.986 37.021C165.216 36.1446 163.416 35.3207 161.586 34.5512L160.811 36.3947ZM172.897 42.5333C174.56 43.5338 176.19 44.5837 177.785 45.6811L178.919 44.0335C177.291 42.913 175.626 41.841 173.928 40.8195L172.897 42.5333ZM183.987 50.3307C185.49 51.5561 186.955 52.8265 188.379 54.14L189.735 52.6696C188.28 51.3286 186.785 50.0316 185.251 48.7806L183.987 50.3307ZM193.86 59.6209C195.174 61.0455 196.444 62.5103 197.669 64.0133L199.219 62.7495C197.968 61.215 196.671 59.7196 195.33 58.2652L193.86 59.6209ZM202.319 70.2147C203.416 71.8096 204.466 73.4397 205.467 75.1029L207.18 74.072C206.159 72.3738 205.087 70.7094 203.967 69.081L202.319 70.2147ZM209.187 81.9016C210.045 83.6348 210.852 85.398 211.605 87.1891L213.449 86.4136C212.679 84.5845 211.855 82.784 210.979 81.0141L209.187 81.9016ZM214.314 94.4483C214.914 96.2845 215.46 98.1452 215.95 100.029L217.886 99.5255C217.386 97.6021 216.828 95.7018 216.215 93.8267L214.314 94.4483ZM217.59 107.6C217.92 109.5 218.195 111.419 218.411 113.357L220.398 113.135C220.178 111.157 219.898 109.197 219.56 107.257L217.59 107.6ZM218.956 121.086C218.985 122.054 219 123.025 219 124H221C221 123.005 220.985 122.013 220.955 121.026L218.956 121.086ZM220 125H222.518V123H220V125ZM229.232 125H234.268V123H229.232V125ZM240.982 125H243.5V123H240.982V125Z" fill="#1DA1B0"/>
</svg>
