<svg width="265" height="26" viewBox="0 0 265 26" fill="none" xmlns="http://www.w3.org/2000/svg">
<path d="M125 11L211.5 11" stroke="#52EDFF"/>
<path d="M169 25L255.5 25" stroke="#52EDFF"/>
<path d="M240.5 8C239.948 8 239.5 8.44772 239.5 9C239.5 9.55228 239.948 10 240.5 10L240.5 8ZM252.5 10L253.5 10L253.5 8L252.5 8L252.5 10ZM240.5 10L252.5 10L252.5 8L240.5 8L240.5 10Z" fill="#52EDFF"/>
<path d="M0 21C7.33333 21 255.4 21 259 21C262.6 21 263.5 20.3333 263.5 20C266 16 246.5 1 233 1H148.5" stroke="#52EDFF"/>
</svg>
