<svg width="401" height="137" viewBox="0 0 401 137" fill="none" xmlns="http://www.w3.org/2000/svg">
<path d="M1 92.2481C44.4667 112.13 148.122 151.043 187 113.464C218 83.5 206.2 29 187 29C167.8 29 157.263 110.637 225 132.679C290.2 153.895 334.6 75.035 377 29" stroke="#1EBFFA"/>
<path d="M399.254 0.178887L399.254 0.178898L376.622 13.2355L376.622 13.2356C375.756 13.7331 375.866 14.9379 376.727 15.3013L381.903 17.4731L395.92 5.11999C396.211 4.86054 396.623 5.2576 396.375 5.55902L384.618 19.8833V23.8052C384.618 24.9343 385.98 25.3787 386.65 24.5612L386.65 24.5612L389.75 20.7868L389.762 20.7727L389.778 20.7798L395.862 23.3286L395.863 23.3286C396.541 23.6154 397.316 23.19 397.44 22.4584L399.254 0.178887ZM399.254 0.178887C400.081 -0.299224 401.118 0.399004 400.956 1.36464L400.956 1.36467L397.44 22.4583L399.254 0.178887Z" fill="#1EBFFA" stroke="#1EBFFA" stroke-width="0.0488281"/>
</svg>
